<svg height="512" width="512" xml:space="preserve" xmlns="http://www.w3.org/2000/svg"><path style="fill:#fff" d="M259.345 110.181a24.68 24.68 0 0 1-.112-2.369c0-11.578 7.584-20.997 16.903-20.997 9.537 0 17.007 9.223 17.007 20.997a25.38 25.38 0 0 1-1.148 7.61c2.795-4.442 4.412-10.032 4.412-15.892 0-14.079-9-25.535-20.06-25.535-11.063 0-20.06 11.455-20.06 25.535 0 3.461.542 6.849 1.615 10.099l1.443.552zm-49.938-22.257a11.178 11.178 0 0 1 1.707-.134c7.418 0 14.069 7.281 15.812 17.311.175 1.1.285 2.196.334 3.277.482-.245.972-.475 1.471-.688.245-1.739.364-3.369.364-5.006 0-12.986-6.879-23.957-15.019-23.957-6.933 0-12.775 7.636-14.44 17.95 1.896-4.704 5.357-8.02 9.771-8.753zm139.686 261.935c1.865-7.908 5.575-28.1 2.063-52.525-4.438-30.87-47.875-126.994-55.35-137.727-4.36.609-15.946 7.304-25.342 12.733-10.896 6.295-22.166 12.807-29.829 15.019-1.6.453-3.273.677-4.997.677-11.199 0-23.32-9.468-31.135-16.926-1.365 14.472-9.078 32.835-17.423 42.273-5.271 6.045-9.982 19.854-14.538 33.21-4.22 12.367-8.583 25.157-13.925 33.592-10.809 16.842-17.009 49.555-9.144 68.159 3.806 9.018 17.62 19.668 29.807 29.062 14.905 11.491 27.776 21.413 29.196 31.419 1.657 11.831-4.635 18.388-10.927 21.497l15.961 18.263c2.466.374 8.405 1.091 17.712 1.091 10.886 0 22.97-.952 35.907-2.834 31.763-4.705 53.886-30.88 58.261-36.438.023-7.363.248-40.123 2.396-50.366.834-3.945 4.037-10.547 16.136-10.547a37.962 37.962 0 0 1 5.171.368z" transform="matrix(.75 0 0 .75 64 64)"/><path style="fill:#e69629" d="M210.488 147.081c.623 2.422 6.136 8.617 14.71 14.242 1.217.781 2.359 1.558 3.431 2.286 4.756 3.232 6.871 4.559 10.29 4.098 5.034-.66 23.579-11.904 31.499-16.706l1.971-1.194c2.949-1.796 5.306-3.023 7.2-4.009 3.75-1.951 4.089-2.266 4.249-2.978-.425-1.103-3.926-4.056-10.641-6.364-2.134-.764-5.162-1.974-8.67-3.374-7.589-3.03-17.984-7.176-22.197-7.922a2.815 2.815 0 0 0-.539-.045c-3.586 0-10.831 4.499-18.031 11.194-3.549 3.204-10.477 8.611-13.272 10.772zm-63.339 248.451c-3.119-5.222-5.815-9.735-7.27-11.984-5.738-8.931-15.696-18.907-20.442-18.907-.416 0-.635.097-.777.181-2.533 1.442-4.662 5.837-6.723 10.084-2.847 5.875-6.075 12.535-12.036 16.146-4.41 2.676-11.152 4.138-17.668 5.555-4.637 1.007-15.493 3.362-16.003 5.562-.703 2.968-.049 6.033.781 9.913.977 4.578 2.196 10.274 1.158 17.267-.732 4.386-2.063 8.575-3.354 12.627-1.793 5.637-3.826 12.03-2.073 13.995 2.162 1.909 15.207 4.019 24.731 5.562 11.972 1.937 24.351 3.942 31.932 7.118l2.009.846c13.579 5.706 38.854 16.329 51.622 16.329 1.162 0 2.152-.094 2.951-.274 2.202-1.482 11.531-8.184 13.284-16.424 2.394-10.619-7.338-23.005-13.349-29.444-6.672-7.165-19.445-28.544-28.773-44.152zm288.612 25.442-1.556-.819c-10.688-5.65-16.307-20.984-15.563-32.542.139-2.129-.126-3.78-.557-5.045-1.974 3.247-4.793 7.348-8.143 10.697-5.691 5.692-19.584 11.833-32.105 11.833-4.67 0-8.927-.823-12.652-2.448-12.498-5.451-14.202-21.081-14.234-28.917a3.267 3.267 0 0 0-.505.183c-.764 2.701-.024 11.806.475 17.935.267 3.279.542 6.669.705 9.78.708 13.708-3.658 36.958-7.447 54.049-3.597 16.732 3.097 28.464 11.224 30.997.73.232 1.551.346 2.453.346 7.487 0 19.886-7.749 30.848-19.285 7.788-8.189 25.122-17.04 40.416-24.85 8.622-4.402 17.537-8.956 20.071-11.271.564-.525.648-.819.65-.821-.16-2.514-10.273-7.824-14.08-9.822z" transform="matrix(.75 0 0 .75 64 64)"/><path d="M409.802 372.32c-11.26-4.611-16.078-10.732-15.612-19.865.48-10.659-5.567-18.465-8.44-21.55 1.736-6.627 6.806-29.554.006-49.468-7.307-21.315-29.617-53.87-52.637-85.87-9.424-13.14-9.87-27.427-10.384-43.968-.494-15.777-1.05-33.66-9.849-53.54C303.32 76.412 284.125 64 260.22 64c-14.22 0-28.818 4.444-40.05 12.193-23.003 15.875-19.963 50.487-17.95 73.388.276 3.136.534 6.099.686 8.628 1.34 22.43.12 34.254-1.473 37.847-1.031 2.348-6.107 9.03-11.48 16.107-5.556 7.318-11.855 15.612-17.018 23.34-6.16 9.301-11.134 23.517-15.943 37.264-3.519 10.058-6.843 19.56-10.078 25.24a34.37 34.37 0 0 0-3.333 25.817c-2.322 1.613-5.676 4.79-8.507 10.775-3.423 7.302-10.366 11.225-24.804 14.001-6.636 1.358-11.21 4.148-13.603 8.292-3.481 6.033-1.585 13.611.145 18.792 2.556 7.614.963 12.433-1.933 21.185-.667 2.018-1.424 4.306-2.19 6.826-1.208 3.981-.772 7.599 1.29 10.756 5.453 8.335 21.365 11.275 37.745 13.21 9.78 1.16 20.484 5.072 30.837 8.856 10.144 3.706 20.633 7.54 30.167 8.704 1.45.182 2.885.273 4.269.273 14.395 0 20.899-9.552 22.962-13.476 5.17-1.055 23.004-4.434 41.385-4.888 18.352-.523 36.107 3.101 41.138 4.226 1.58 3.027 5.75 9.94 12.395 13.503 3.652 1.997 8.735 3.141 13.94 3.141h.002c5.56 0 16.137-1.315 24.509-10.123 8.35-8.847 29.211-20.144 44.445-28.392 3.4-1.84 6.58-3.563 9.369-5.116 8.557-4.744 13.227-11.522 12.81-18.596-.348-5.878-4.237-11.032-10.15-13.454zM271.258 119.495c8.295 0 15.045 8.591 15.045 19.151 0 4.395-1.213 8.587-3.31 11.92.56-1.781.862-3.709.862-5.708 0-8.83-5.603-15.748-12.756-15.748-6.99 0-12.677 7.064-12.677 15.748 0 .593.03 1.185.084 1.777l-1.084-.414a24.081 24.081 0 0 1-1.21-7.575c0-10.559 6.748-19.15 15.046-19.15zm-25.512 38.377c3.16.558 10.954 3.669 16.647 5.941 2.631 1.05 4.905 1.958 6.503 2.53 5.036 1.732 7.663 3.947 7.98 4.774-.119.535-.374.77-3.186 2.233-1.42.739-3.188 1.659-5.4 3.007l-1.478.896c-5.94 3.602-19.849 12.036-23.625 12.529-2.565.345-4.15-.651-7.717-3.073-.805-.548-1.66-1.13-2.573-1.715-6.43-4.22-10.566-8.865-11.033-10.681 2.097-1.62 7.292-5.676 9.953-8.079 5.4-5.02 10.833-8.395 13.523-8.395.142-.002.271.007.406.033zm-21.192-34.83c6.106 0 11.264 8.227 11.264 17.968 0 1.228-.089 2.45-.273 3.754-.374.16-.742.334-1.103.516a22.317 22.317 0 0 0-.25-2.458c-1.307-7.522-6.296-12.983-11.86-12.983-.411 0-.825.032-1.28.1-3.31.552-5.906 3.037-7.329 6.564 1.25-7.735 5.633-13.461 10.83-13.461zm-18.602 292.802c-1.314 6.181-8.312 11.207-9.963 12.318-.599.135-1.34.206-2.213.206-9.576 0-28.532-7.967-38.716-12.247l-1.507-.634c-5.687-2.384-14.97-3.885-23.95-5.339-7.143-1.157-16.925-2.74-18.547-4.171-1.315-1.475.21-6.269 1.554-10.497.969-3.039 1.968-6.18 2.516-9.47.777-5.245-.136-9.518-.869-12.95-.621-2.91-1.113-5.209-.585-7.435.382-1.65 8.524-3.415 12.002-4.171 4.888-1.063 9.945-2.16 13.25-4.167 4.472-2.708 6.893-7.702 9.028-12.11 1.546-3.184 3.142-6.48 5.042-7.562.107-.065.27-.136.583-.136 3.56 0 11.028 7.481 15.331 14.18 1.092 1.687 3.114 5.07 5.453 8.988 6.997 11.707 16.576 27.74 21.58 33.114 4.508 4.83 11.806 14.118 10.011 22.083zm103.887-81.818c-1.609 7.682-1.779 32.252-1.797 37.775-3.281 4.168-19.873 23.799-43.696 27.328-9.703 1.41-18.764 2.126-26.93 2.126-6.98 0-11.434-.54-13.284-.819l-11.97-13.697c4.719-2.332 9.438-7.25 8.195-16.123-1.065-7.503-10.718-14.946-21.897-23.564-9.14-7.045-19.5-15.031-22.355-21.796-5.9-13.952-1.25-38.486 6.858-51.12 4.006-6.325 7.278-15.918 10.443-25.193 3.417-10.017 6.951-20.375 10.904-24.908 6.259-7.078 12.043-20.85 13.067-31.705 5.86 5.594 14.952 12.695 23.351 12.695 1.293 0 2.549-.169 3.748-.508 5.746-1.66 14.198-6.543 22.372-11.264 7.047-4.072 15.736-9.093 19.006-9.55 5.606 8.05 38.184 80.144 41.513 103.295 2.634 18.319-.149 33.462-1.548 39.394a28.83 28.83 0 0 0-3.877-.278c-9.075 0-11.477 4.953-12.103 7.912zm91.055 53.688c-1.9 1.736-8.587 5.152-15.053 8.453-11.471 5.856-24.473 12.496-30.312 18.638-8.221 8.652-17.52 14.464-23.136 14.464a6.078 6.078 0 0 1-1.84-.26c-6.096-1.9-11.115-10.7-8.418-23.248 2.842-12.82 6.115-30.255 5.586-40.536-.123-2.334-.329-4.877-.53-7.335-.373-4.596-.928-11.425-.355-13.452.113-.053.239-.098.378-.137.024 5.877 1.3 17.6 10.676 21.688 2.794 1.219 5.986 1.836 9.489 1.836 9.39 0 19.81-4.606 24.078-8.875 2.514-2.512 4.627-5.587 6.108-8.023.323.948.522 2.187.417 3.783-.558 8.669 3.655 20.169 11.673 24.407l1.167.614c2.855 1.497 10.44 5.48 10.562 7.368-.004 0-.067.222-.49.615z"/></svg>